<svg xmlns="http://www.w3.org/2000/svg" width="16.22" height="15.25"><defs><filter id="a" filterUnits="userSpaceOnUse"><feFlood result="flood" flood-color="#bb9c66"/><feComposite result="composite" operator="in" in2="SourceGraphic"/><feBlend result="blend" in2="SourceGraphic"/></filter></defs><g filter="url(#a)"><path d="M6.1 4.879C7.27 6.051 8.39 8.829 7.22 10s-4.19.294-5.36-.878A3 3 0 016.1 4.879zm4.24 4.243a3 3 0 01-4.24 4.242C4.93 12.193 4.05 9.172 5.22 8s3.95-.05 5.12 1.122z" fill="none" stroke="#fff" stroke-width="2"/><path d="M5.22 10c.78.781.25 2.584-.54 3.364a2 2 0 01-2.82-2.828c.78-.781 2.58-1.317 3.36-.536zm3-1l-2-2 7-7 2 2zm5-7l1-1 2 2-1 1zm-2 2l1-1 2 2-1 1z" fill="#bb9c66" fill-rule="evenodd"/></g></svg>