<svg xmlns="http://www.w3.org/2000/svg" width="10.09" height="13.094"><path d="M3.42 6.5c1.89 0 4.11-.619 4.11 1.624S5.99 13 4.1 13 0 10.369 0 8.124 1.53 6.5 3.42 6.5zM.68 2.437a.76.76 0 01.69.813v4.874a.7.7 0 11-1.37 0V3.25a.759.759 0 01.68-.812zM2.74.812a.759.759 0 01.68.813v6.5a.7.7 0 11-1.37 0v-6.5a.76.76 0 01.69-.812zM4.79 0a.751.751 0 01.68.812v7.312a.7.7 0 11-1.37 0V.812A.759.759 0 014.79 0zm2.05 1.625a.76.76 0 01.69.812v5.687a.7.7 0 11-1.37 0V2.437a.752.752 0 01.68-.811zM4 8l3.23-.366c.4-.475 2.37-2.11 2.77-1.633s-.6 2.524-1 3l-3 4c-.4.476-1.6-1.524-2-2A3.9 3.9 0 014 8z" fill="#bb9c66" fill-rule="evenodd"/></svg>